<?xml version="1.0" encoding="UTF-8" standalone="no"?>
<!DOCTYPE svg PUBLIC "-//W3C//DTD SVG 1.1//EN"
 "http://www.w3.org/Graphics/SVG/1.1/DTD/svg11.dtd">
<!-- Generated by graphviz version 2.38.0 (20140413.2041)
 -->
<!-- Title: tasks trigger diagram Pages: 1 -->
<svg width="429pt" height="314pt"
 viewBox="0.00 0.00 429.29 314.00" xmlns="http://www.w3.org/2000/svg" xmlns:xlink="http://www.w3.org/1999/xlink">
<g id="graph0" class="graph" transform="scale(1 1) rotate(0) translate(4 310)">
<title>tasks trigger diagram</title>
<!-- $notice_gobatch2 -->
<g id="node1" class="node"><title>$notice_gobatch2</title>
<polygon fill="wheat" stroke="black" points="400.786,-198 333.786,-198 333.786,-162 406.786,-162 406.786,-192 400.786,-198"/>
<polyline fill="none" stroke="black" points="400.786,-198 400.786,-192 "/>
<polyline fill="none" stroke="black" points="406.786,-192 400.786,-192 "/>
<text text-anchor="middle" x="370.286" y="-176.3" font-family="Times,serif" font-size="14.00">^gobatch2</text>
</g>
<!-- appli -->
<g id="node2" class="node"><title>appli</title>
<ellipse fill="none" stroke="black" stroke-dasharray="5,2" cx="28.5975" cy="-188" rx="28.6953" ry="18"/>
<text text-anchor="middle" x="28.5975" y="-184.3" font-family="Times,serif" font-size="14.00">appli</text>
</g>
<!-- appli.poll -->
<g id="node3" class="node"><title>appli.poll</title>
<ellipse fill="none" stroke="black" stroke-dasharray="5,2" cx="143.24" cy="-239" rx="44.393" ry="18"/>
<text text-anchor="middle" x="143.24" y="-235.3" font-family="Times,serif" font-size="14.00">appli.poll</text>
</g>
<!-- appli&#45;&#45;appli.poll -->
<g id="edge1" class="edge"><title>appli&#45;&#45;appli.poll</title>
<path fill="none" stroke="black" stroke-dasharray="5,2" d="M52.3925,-198.321C69.8784,-206.237 94.143,-217.223 113.049,-225.783"/>
</g>
<!-- appli.batch -->
<g id="node4" class="node"><title>appli.batch</title>
<ellipse fill="none" stroke="black" stroke-dasharray="5,2" cx="143.24" cy="-138" rx="50.0912" ry="18"/>
<text text-anchor="middle" x="143.24" y="-134.3" font-family="Times,serif" font-size="14.00">appli.batch</text>
</g>
<!-- appli&#45;&#45;appli.batch -->
<g id="edge2" class="edge"><title>appli&#45;&#45;appli.batch</title>
<path fill="none" stroke="black" stroke-dasharray="5,2" d="M52.3925,-177.882C69.2355,-170.405 92.368,-160.137 110.943,-151.893"/>
</g>
<!-- appli.poll.get1 -->
<g id="node13" class="node"><title>appli.poll.get1</title>
<g id="a_node13"><a xlink:title="appli.poll.get1">
<path fill="skyblue" stroke="black" d="M271.286,-304C271.286,-304 241.286,-304 241.286,-304 235.286,-304 229.286,-298 229.286,-292 229.286,-292 229.286,-280 229.286,-280 229.286,-274 235.286,-268 241.286,-268 241.286,-268 271.286,-268 271.286,-268 277.286,-268 283.286,-274 283.286,-280 283.286,-280 283.286,-292 283.286,-292 283.286,-298 277.286,-304 271.286,-304"/>
<text text-anchor="middle" x="256.286" y="-282.3" font-family="Times,serif" font-size="14.00">get1</text>
</a>
</g>
</g>
<!-- appli.poll&#45;&#45;appli.poll.get1 -->
<g id="edge12" class="edge"><title>appli.poll&#45;&#45;appli.poll.get1</title>
<path fill="none" stroke="black" stroke-dasharray="5,2" d="M174.584,-251.843C191.666,-259.073 212.781,-268.01 229.128,-274.929"/>
</g>
<!-- appli.batch.batch4 -->
<g id="node5" class="node"><title>appli.batch.batch4</title>
<g id="a_node5"><a xlink:title="appli.batch.batch4">
<path fill="skyblue" stroke="black" d="M271.286,-223C271.286,-223 241.286,-223 241.286,-223 235.286,-223 229.286,-217 229.286,-211 229.286,-211 229.286,-199 229.286,-199 229.286,-193 235.286,-187 241.286,-187 241.286,-187 271.286,-187 271.286,-187 277.286,-187 283.286,-193 283.286,-199 283.286,-199 283.286,-211 283.286,-211 283.286,-217 277.286,-223 271.286,-223"/>
<text text-anchor="middle" x="256.286" y="-201.3" font-family="Times,serif" font-size="14.00">batch4</text>
</a>
</g>
</g>
<!-- appli.batch&#45;&#45;appli.batch.batch4 -->
<g id="edge3" class="edge"><title>appli.batch&#45;&#45;appli.batch.batch4</title>
<path fill="none" stroke="black" stroke-dasharray="5,2" d="M169.717,-153.371C187.518,-164.111 211.215,-178.409 229.158,-189.235"/>
</g>
<!-- appli.batch.batch2 -->
<g id="node7" class="node"><title>appli.batch.batch2</title>
<g id="a_node7"><a xlink:title="appli.batch.batch2">
<path fill="skyblue" stroke="black" d="M271.286,-156C271.286,-156 241.286,-156 241.286,-156 235.286,-156 229.286,-150 229.286,-144 229.286,-144 229.286,-132 229.286,-132 229.286,-126 235.286,-120 241.286,-120 241.286,-120 271.286,-120 271.286,-120 277.286,-120 283.286,-126 283.286,-132 283.286,-132 283.286,-144 283.286,-144 283.286,-150 277.286,-156 271.286,-156"/>
<text text-anchor="middle" x="256.286" y="-134.3" font-family="Times,serif" font-size="14.00">batch2</text>
</a>
</g>
</g>
<!-- appli.batch&#45;&#45;appli.batch.batch2 -->
<g id="edge5" class="edge"><title>appli.batch&#45;&#45;appli.batch.batch2</title>
<path fill="none" stroke="black" stroke-dasharray="5,2" d="M193.593,-138C205.873,-138 218.561,-138 229.214,-138"/>
</g>
<!-- appli.batch.batch3 -->
<g id="node9" class="node"><title>appli.batch.batch3</title>
<g id="a_node9"><a xlink:title="appli.batch.batch3">
<path fill="skyblue" stroke="black" d="M271.286,-95C271.286,-95 241.286,-95 241.286,-95 235.286,-95 229.286,-89 229.286,-83 229.286,-83 229.286,-71 229.286,-71 229.286,-65 235.286,-59 241.286,-59 241.286,-59 271.286,-59 271.286,-59 277.286,-59 283.286,-65 283.286,-71 283.286,-71 283.286,-83 283.286,-83 283.286,-89 277.286,-95 271.286,-95"/>
<text text-anchor="middle" x="256.286" y="-73.3" font-family="Times,serif" font-size="14.00">batch3</text>
</a>
</g>
</g>
<!-- appli.batch&#45;&#45;appli.batch.batch3 -->
<g id="edge8" class="edge"><title>appli.batch&#45;&#45;appli.batch.batch3</title>
<path fill="none" stroke="black" stroke-dasharray="5,2" d="M171.405,-123.078C188.998,-113.413 211.784,-100.897 229.166,-91.3482"/>
</g>
<!-- appli.batch.batch5 -->
<g id="node11" class="node"><title>appli.batch.batch5</title>
<g id="a_node11"><a xlink:title="appli.batch.batch5">
<path fill="skyblue" stroke="black" d="M271.286,-38C271.286,-38 241.286,-38 241.286,-38 235.286,-38 229.286,-32 229.286,-26 229.286,-26 229.286,-14 229.286,-14 229.286,-8 235.286,-2 241.286,-2 241.286,-2 271.286,-2 271.286,-2 277.286,-2 283.286,-8 283.286,-14 283.286,-14 283.286,-26 283.286,-26 283.286,-32 277.286,-38 271.286,-38"/>
<text text-anchor="middle" x="256.286" y="-16.3" font-family="Times,serif" font-size="14.00">batch5</text>
</a>
</g>
</g>
<!-- appli.batch&#45;&#45;appli.batch.batch5 -->
<g id="edge10" class="edge"><title>appli.batch&#45;&#45;appli.batch.batch5</title>
<path fill="none" stroke="black" stroke-dasharray="5,2" d="M160.387,-120.842C181.08,-98.8533 216.806,-60.8903 238.023,-38.3444"/>
</g>
<!-- $cron_1 -->
<g id="node6" class="node"><title>$cron_1</title>
<text text-anchor="middle" x="370.286" y="-230.3" font-family="Times,serif" font-size="14.00">(1/10 * * * * *)</text>
</g>
<!-- appli.batch.batch4&#45;&#45;$cron_1 -->
<g id="edge4" class="edge"><title>appli.batch.batch4&#45;&#45;$cron_1</title>
<path fill="none" stroke="black" d="M293.457,-214.366C301.602,-216.475 310.39,-218.75 318.996,-220.979"/>
<polygon fill="black" stroke="black" points="283.545,-211.799 294.354,-209.95 288.385,-213.053 293.226,-214.306 293.226,-214.306 293.226,-214.306 288.385,-213.053 292.098,-218.662 283.545,-211.799 283.545,-211.799"/>
</g>
<!-- appli.batch.batch2&#45;&#45;$notice_gobatch2 -->
<g id="edge7" class="edge"><title>appli.batch.batch2&#45;&#45;$notice_gobatch2</title>
<path fill="none" stroke="black" d="M293.04,-151.408C305.951,-156.249 320.522,-161.713 333.441,-166.558"/>
<polygon fill="black" stroke="black" points="283.545,-147.847 294.488,-147.145 288.227,-149.603 292.908,-151.358 292.908,-151.358 292.908,-151.358 288.227,-149.603 291.328,-155.572 283.545,-147.847 283.545,-147.847"/>
</g>
<!-- $cron_2 -->
<g id="node8" class="node"><title>$cron_2</title>
<text text-anchor="middle" x="370.286" y="-122.3" font-family="Times,serif" font-size="14.00">(0 0 22 * * *)</text>
</g>
<!-- appli.batch.batch2&#45;&#45;$cron_2 -->
<g id="edge6" class="edge"><title>appli.batch.batch2&#45;&#45;$cron_2</title>
<path fill="none" stroke="black" d="M293.609,-134.108C303.267,-133.073 313.82,-131.943 323.897,-130.863"/>
<polygon fill="black" stroke="black" points="283.545,-135.187 293.009,-129.647 288.517,-134.654 293.488,-134.121 293.488,-134.121 293.488,-134.121 288.517,-134.654 293.968,-138.596 283.545,-135.187 283.545,-135.187"/>
</g>
<!-- $cron_3 -->
<g id="node10" class="node"><title>$cron_3</title>
<text text-anchor="middle" x="370.286" y="-68.3" font-family="Times,serif" font-size="14.00">(2/10 * * * * *)</text>
</g>
<!-- appli.batch.batch3&#45;&#45;$cron_3 -->
<g id="edge9" class="edge"><title>appli.batch.batch3&#45;&#45;$cron_3</title>
<path fill="none" stroke="black" d="M293.728,-75.3731C301.797,-75.0129 310.486,-74.625 318.996,-74.2451"/>
<polygon fill="black" stroke="black" points="283.545,-75.8277 293.334,-70.8861 288.54,-75.6047 293.535,-75.3816 293.535,-75.3816 293.535,-75.3816 288.54,-75.6047 293.736,-79.8772 283.545,-75.8277 283.545,-75.8277"/>
</g>
<!-- $notrigger_4 -->
<g id="node12" class="node"><title>$notrigger_4</title>
<text text-anchor="middle" x="370.286" y="-14.3" font-family="Times,serif" font-size="14.00">no trigger</text>
</g>
<!-- appli.batch.batch5&#45;&#45;$notrigger_4 -->
<g id="edge11" class="edge"><title>appli.batch.batch5&#45;&#45;$notrigger_4</title>
<path fill="none" stroke="black" stroke-dasharray="5,2" d="M291.817,-19.3834C305.584,-19.1375 321.392,-18.8553 335.123,-18.6101"/>
<ellipse fill="none" stroke="black" cx="287.544" cy="-19.4596" rx="4" ry="4"/>
</g>
<!-- $cron_5 -->
<g id="node14" class="node"><title>$cron_5</title>
<text text-anchor="middle" x="370.286" y="-284.3" font-family="Times,serif" font-size="14.00">(/30 * * * * *)</text>
</g>
<!-- appli.poll.get1&#45;&#45;$cron_5 -->
<g id="edge13" class="edge"><title>appli.poll.get1&#45;&#45;$cron_5</title>
<path fill="none" stroke="black" d="M293.569,-286.648C302.814,-286.813 312.881,-286.993 322.566,-287.166"/>
<polygon fill="black" stroke="black" points="283.545,-286.469 293.624,-282.148 288.544,-286.558 293.543,-286.648 293.543,-286.648 293.543,-286.648 288.544,-286.558 293.463,-291.147 283.545,-286.469 283.545,-286.469"/>
</g>
</g>
</svg>
