<?xml version="1.0" encoding="UTF-8" standalone="no"?>
<!DOCTYPE svg PUBLIC "-//W3C//DTD SVG 1.1//EN"
 "http://www.w3.org/Graphics/SVG/1.1/DTD/svg11.dtd">
<!-- Generated by graphviz version 2.38.0 (20140413.2041)
 -->
<!-- Title: tasks deployment diagram Pages: 1 -->
<svg width="627pt" height="293pt"
 viewBox="0.00 0.00 627.29 293.00" xmlns="http://www.w3.org/2000/svg" xmlns:xlink="http://www.w3.org/1999/xlink">
<g id="graph0" class="graph" transform="scale(1 1) rotate(0) translate(4 289)">
<title>tasks deployment diagram</title>
<!-- localhost -->
<g id="node1" class="node"><title>localhost</title>
<polygon fill="coral" stroke="black" points="618.786,-215 491.786,-215 491.786,-179 618.786,-179 618.786,-215"/>
<text text-anchor="middle" x="555.286" y="-193.3" font-family="Times,serif" font-size="14.00">localhost (localhost)</text>
</g>
<!-- back2 -->
<g id="node2" class="node"><title>back2</title>
<polygon fill="coral" stroke="black" points="619.286,-90 491.286,-90 491.286,-54 619.286,-54 619.286,-90"/>
<text text-anchor="middle" x="555.286" y="-68.3" font-family="Times,serif" font-size="14.00">back2 (back2.foo.fr)</text>
</g>
<!-- back1 -->
<g id="node3" class="node"><title>back1</title>
<polygon fill="coral" stroke="black" points="619.286,-36 491.286,-36 491.286,-0 619.286,-0 619.286,-36"/>
<text text-anchor="middle" x="555.286" y="-14.3" font-family="Times,serif" font-size="14.00">back1 (back1.foo.fr)</text>
</g>
<!-- back -->
<g id="node4" class="node"><title>back</title>
<polygon fill="coral" stroke="black" points="433.286,-78 379.286,-78 379.286,-40 433.286,-40 433.286,-78"/>
<polygon fill="none" stroke="black" points="437.286,-82 375.286,-82 375.286,-36 437.286,-36 437.286,-82"/>
<text text-anchor="middle" x="406.286" y="-62.8" font-family="Times,serif" font-size="14.00">back</text>
<text text-anchor="middle" x="406.286" y="-47.8" font-family="Times,serif" font-size="14.00">(first)</text>
</g>
<!-- back&#45;&#45;back2 -->
<g id="edge2" class="edge"><title>back&#45;&#45;back2</title>
<path fill="none" stroke="black" d="M437.388,-61.6621C450.136,-62.7894 465.596,-64.1567 481.042,-65.5226"/>
<polygon fill="black" stroke="black" points="491.161,-66.4175 480.803,-70.019 486.18,-65.977 481.2,-65.5365 481.2,-65.5365 481.2,-65.5365 486.18,-65.977 481.596,-61.054 491.161,-66.4175 491.161,-66.4175"/>
</g>
<!-- back&#45;&#45;back1 -->
<g id="edge1" class="edge"><title>back&#45;&#45;back1</title>
<path fill="none" stroke="black" d="M437.388,-50.6041C450.257,-47.0149 465.891,-42.6544 481.483,-38.3056"/>
<polygon fill="black" stroke="black" points="491.161,-35.6063 482.738,-42.6275 486.345,-36.9497 481.529,-38.293 481.529,-38.293 481.529,-38.293 486.345,-36.9497 480.32,-33.9584 491.161,-35.6063 491.161,-35.6063"/>
</g>
<!-- appli -->
<g id="node5" class="node"><title>appli</title>
<ellipse fill="none" stroke="black" stroke-dasharray="5,2" cx="28.5975" cy="-210" rx="28.6953" ry="18"/>
<text text-anchor="middle" x="28.5975" y="-206.3" font-family="Times,serif" font-size="14.00">appli</text>
</g>
<!-- appli.batch -->
<g id="node6" class="node"><title>appli.batch</title>
<ellipse fill="none" stroke="black" stroke-dasharray="5,2" cx="144.24" cy="-172" rx="50.0912" ry="18"/>
<text text-anchor="middle" x="144.24" y="-168.3" font-family="Times,serif" font-size="14.00">appli.batch</text>
</g>
<!-- appli&#45;&#45;appli.batch -->
<g id="edge3" class="edge"><title>appli&#45;&#45;appli.batch</title>
<path fill="none" stroke="black" stroke-dasharray="5,2" d="M54.2563,-201.755C69.6624,-196.603 89.7718,-189.879 106.976,-184.126"/>
</g>
<!-- appli.poll -->
<g id="node7" class="node"><title>appli.poll</title>
<ellipse fill="none" stroke="black" stroke-dasharray="5,2" cx="144.24" cy="-239" rx="44.393" ry="18"/>
<text text-anchor="middle" x="144.24" y="-235.3" font-family="Times,serif" font-size="14.00">appli.poll</text>
</g>
<!-- appli&#45;&#45;appli.poll -->
<g id="edge4" class="edge"><title>appli&#45;&#45;appli.poll</title>
<path fill="none" stroke="black" stroke-dasharray="5,2" d="M55.3848,-216.581C70.4469,-220.424 89.7057,-225.339 106.351,-229.586"/>
</g>
<!-- appli.batch.batch3 -->
<g id="node8" class="node"><title>appli.batch.batch3</title>
<g id="a_node8"><a xlink:title="appli.batch.batch3">
<path fill="skyblue" stroke="black" d="M345.286,-190C345.286,-190 315.286,-190 315.286,-190 309.286,-190 303.286,-184 303.286,-178 303.286,-178 303.286,-166 303.286,-166 303.286,-160 309.286,-154 315.286,-154 315.286,-154 345.286,-154 345.286,-154 351.286,-154 357.286,-160 357.286,-166 357.286,-166 357.286,-178 357.286,-178 357.286,-184 351.286,-190 345.286,-190"/>
<text text-anchor="middle" x="330.286" y="-168.3" font-family="Times,serif" font-size="14.00">batch3</text>
</a>
</g>
</g>
<!-- appli.batch&#45;&#45;appli.batch.batch3 -->
<g id="edge5" class="edge"><title>appli.batch&#45;&#45;appli.batch.batch3</title>
<path fill="none" stroke="black" stroke-dasharray="5,2" d="M194.561,-172C229.486,-172 274.954,-172 303.124,-172"/>
</g>
<!-- appli.batch.batch2 -->
<g id="node10" class="node"><title>appli.batch.batch2</title>
<g id="a_node10"><a xlink:title="appli.batch.batch2">
<path fill="skyblue" stroke="black" d="M273.286,-95C273.286,-95 243.286,-95 243.286,-95 237.286,-95 231.286,-89 231.286,-83 231.286,-83 231.286,-71 231.286,-71 231.286,-65 237.286,-59 243.286,-59 243.286,-59 273.286,-59 273.286,-59 279.286,-59 285.286,-65 285.286,-71 285.286,-71 285.286,-83 285.286,-83 285.286,-89 279.286,-95 273.286,-95"/>
<text text-anchor="middle" x="258.286" y="-73.3" font-family="Times,serif" font-size="14.00">batch2</text>
</a>
</g>
</g>
<!-- appli.batch&#45;&#45;appli.batch.batch2 -->
<g id="edge9" class="edge"><title>appli.batch&#45;&#45;appli.batch.batch2</title>
<path fill="none" stroke="black" stroke-dasharray="5,2" d="M164.757,-155.452C184.57,-138.654 215.173,-112.707 235.699,-95.3029"/>
</g>
<!-- appli.batch.batch5 -->
<g id="node11" class="node"><title>appli.batch.batch5</title>
<g id="a_node11"><a xlink:title="appli.batch.batch5">
<path fill="skyblue" stroke="black" d="M345.286,-236C345.286,-236 315.286,-236 315.286,-236 309.286,-236 303.286,-230 303.286,-224 303.286,-224 303.286,-212 303.286,-212 303.286,-206 309.286,-200 315.286,-200 315.286,-200 345.286,-200 345.286,-200 351.286,-200 357.286,-206 357.286,-212 357.286,-212 357.286,-224 357.286,-224 357.286,-230 351.286,-236 345.286,-236"/>
<text text-anchor="middle" x="330.286" y="-214.3" font-family="Times,serif" font-size="14.00">batch5</text>
</a>
</g>
</g>
<!-- appli.batch&#45;&#45;appli.batch.batch5 -->
<g id="edge11" class="edge"><title>appli.batch&#45;&#45;appli.batch.batch5</title>
<path fill="none" stroke="black" stroke-dasharray="5,2" d="M186.086,-182.209C221.775,-191.129 272.521,-203.812 303.042,-211.441"/>
</g>
<!-- appli.batch.batch4 -->
<g id="node12" class="node"><title>appli.batch.batch4</title>
<g id="a_node12"><a xlink:title="appli.batch.batch4">
<path fill="skyblue" stroke="black" d="M421.286,-136C421.286,-136 391.286,-136 391.286,-136 385.286,-136 379.286,-130 379.286,-124 379.286,-124 379.286,-112 379.286,-112 379.286,-106 385.286,-100 391.286,-100 391.286,-100 421.286,-100 421.286,-100 427.286,-100 433.286,-106 433.286,-112 433.286,-112 433.286,-124 433.286,-124 433.286,-130 427.286,-136 421.286,-136"/>
<text text-anchor="middle" x="406.286" y="-114.3" font-family="Times,serif" font-size="14.00">batch4</text>
</a>
</g>
</g>
<!-- appli.batch&#45;&#45;appli.batch.batch4 -->
<g id="edge13" class="edge"><title>appli.batch&#45;&#45;appli.batch.batch4</title>
<path fill="none" stroke="black" stroke-dasharray="5,2" d="M187.891,-163.143C242.213,-151.863 334.404,-132.719 379.244,-123.408"/>
</g>
<!-- appli.poll.get1 -->
<g id="node9" class="node"><title>appli.poll.get1</title>
<g id="a_node9"><a xlink:title="appli.poll.get1">
<path fill="skyblue" stroke="black" d="M273.286,-285C273.286,-285 243.286,-285 243.286,-285 237.286,-285 231.286,-279 231.286,-273 231.286,-273 231.286,-261 231.286,-261 231.286,-255 237.286,-249 243.286,-249 243.286,-249 273.286,-249 273.286,-249 279.286,-249 285.286,-255 285.286,-261 285.286,-261 285.286,-273 285.286,-273 285.286,-279 279.286,-285 273.286,-285"/>
<text text-anchor="middle" x="258.286" y="-263.3" font-family="Times,serif" font-size="14.00">get1</text>
</a>
</g>
</g>
<!-- appli.poll&#45;&#45;appli.poll.get1 -->
<g id="edge7" class="edge"><title>appli.poll&#45;&#45;appli.poll.get1</title>
<path fill="none" stroke="black" stroke-dasharray="5,2" d="M182.239,-248.246C198.175,-252.228 216.441,-256.793 230.962,-260.422"/>
</g>
<!-- appli.batch.batch3&#45;&#45;localhost -->
<g id="edge6" class="edge"><title>appli.batch.batch3&#45;&#45;localhost</title>
<path fill="none" stroke="black" d="M357.303,-174.917C387.618,-178.315 438.999,-184.075 481.685,-188.861"/>
<polygon fill="black" stroke="black" points="491.768,-189.991 481.329,-193.349 486.8,-189.434 481.831,-188.877 481.831,-188.877 481.831,-188.877 486.8,-189.434 482.332,-184.405 491.768,-189.991 491.768,-189.991"/>
<text text-anchor="middle" x="406.286" y="-186.8" font-family="Times,serif" font-size="14.00">local</text>
</g>
<!-- appli.poll.get1&#45;&#45;localhost -->
<g id="edge8" class="edge"><title>appli.poll.get1&#45;&#45;localhost</title>
<path fill="none" stroke="black" d="M285.551,-261.836C335.064,-252.1 437.286,-232 437.286,-232 437.286,-232 459.395,-225.386 484.391,-217.909"/>
<polygon fill="black" stroke="black" points="494.072,-215.013 485.782,-222.19 489.282,-216.446 484.492,-217.879 484.492,-217.879 484.492,-217.879 489.282,-216.446 483.202,-213.567 494.072,-215.013 494.072,-215.013"/>
<text text-anchor="middle" x="406.286" y="-246.8" font-family="Times,serif" font-size="14.00">http</text>
</g>
<!-- appli.batch.batch2&#45;&#45;back -->
<g id="edge10" class="edge"><title>appli.batch.batch2&#45;&#45;back</title>
<path fill="none" stroke="black" d="M285.388,-73.782C307.519,-71.0534 339.623,-67.0954 365.042,-63.9615"/>
<polygon fill="black" stroke="black" points="375.125,-62.7185 365.75,-68.4084 370.162,-63.3304 365.2,-63.9422 365.2,-63.9422 365.2,-63.9422 370.162,-63.3304 364.649,-59.476 375.125,-62.7185 375.125,-62.7185"/>
<text text-anchor="middle" x="330.286" y="-75.8" font-family="Times,serif" font-size="14.00">ssh</text>
</g>
<!-- appli.batch.batch5&#45;&#45;localhost -->
<g id="edge12" class="edge"><title>appli.batch.batch5&#45;&#45;localhost</title>
<path fill="none" stroke="black" d="M357.303,-215.55C387.618,-212.695 438.999,-207.857 481.685,-203.837"/>
<polygon fill="black" stroke="black" points="491.768,-202.887 482.234,-208.305 486.79,-203.356 481.812,-203.825 481.812,-203.825 481.812,-203.825 486.79,-203.356 481.391,-199.345 491.768,-202.887 491.768,-202.887"/>
<text text-anchor="middle" x="406.286" y="-216.8" font-family="Times,serif" font-size="14.00">local</text>
</g>
<!-- appli.batch.batch4&#45;&#45;localhost -->
<g id="edge14" class="edge"><title>appli.batch.batch4&#45;&#45;localhost</title>
<path fill="none" stroke="black" d="M433.371,-127.881C451.819,-134.869 473.286,-143 473.286,-143 473.286,-143 496.728,-158.628 518.39,-173.069"/>
<polygon fill="black" stroke="black" points="526.863,-178.718 516.046,-176.915 522.703,-175.945 518.543,-173.171 518.543,-173.171 518.543,-173.171 522.703,-175.945 521.039,-169.427 526.863,-178.718 526.863,-178.718"/>
<text text-anchor="middle" x="464.286" y="-146.8" font-family="Times,serif" font-size="14.00">ssh</text>
</g>
</g>
</svg>
